<svg class="ssd" width="20" height="20" viewBox="0 0 26 26" fill="none"
                  xmlns="http://www.w3.org/2000/svg">
                  <path
                    d="M25.9999 13.0428C25.9959 16.22 24.8301 19.2861 22.7223 21.6636C20.6145 24.041 17.7101 25.5656 14.5562 25.9503C14.486 25.9582 14.4149 25.9512 14.3475 25.9296C14.2802 25.9081 14.2182 25.8725 14.1657 25.8253C14.1131 25.778 14.0712 25.7202 14.0426 25.6555C14.014 25.5909 13.9995 25.5209 13.9999 25.4503V16.0428H16.9999C17.137 16.0431 17.2727 16.0152 17.3986 15.9608C17.5244 15.9065 17.6378 15.8268 17.7315 15.7268C17.8253 15.6268 17.8975 15.5086 17.9437 15.3796C17.9899 15.2505 18.009 15.1133 17.9999 14.9765C17.9779 14.7194 17.8592 14.4801 17.6679 14.3069C17.4766 14.1336 17.2268 14.0393 16.9687 14.0428H13.9999V11.0428C13.9999 10.5123 14.2107 10.0036 14.5857 9.62854C14.9608 9.25347 15.4695 9.04275 15.9999 9.04275H17.9999C18.137 9.04306 18.2727 9.01517 18.3986 8.96082C18.5244 8.90648 18.6378 8.82683 18.7315 8.72684C18.8253 8.62685 18.8975 8.50864 18.9437 8.37956C18.9899 8.25048 19.009 8.11329 18.9999 7.9765C18.9778 7.71892 18.8588 7.47931 18.667 7.30602C18.4751 7.13272 18.2247 7.03864 17.9662 7.04275H15.9999C14.9391 7.04275 13.9217 7.46418 13.1715 8.21433C12.4214 8.96447 11.9999 9.98189 11.9999 11.0428V14.0428H8.99994C8.86285 14.0425 8.72717 14.0703 8.60131 14.1247C8.47546 14.179 8.36212 14.2587 8.26834 14.3587C8.17456 14.4587 8.10234 14.5769 8.05617 14.7059C8.01 14.835 7.99086 14.9722 7.99994 15.109C8.02206 15.3666 8.14105 15.6062 8.3329 15.7795C8.52476 15.9528 8.77519 16.0469 9.03369 16.0428H11.9999V25.4528C12.0004 25.5233 11.9859 25.5932 11.9574 25.6577C11.9289 25.7223 11.887 25.78 11.8346 25.8273C11.7822 25.8745 11.7204 25.9101 11.6532 25.9317C11.5861 25.9533 11.5151 25.9605 11.4449 25.9528C8.20664 25.5584 5.2344 23.9626 3.11654 21.4813C0.998673 19 -0.110452 15.8141 0.00869322 12.554C0.258693 5.804 5.72619 0.316504 12.4812 0.054004C14.2301 -0.0137385 15.9746 0.271943 17.6105 0.89396C19.2464 1.51598 20.7401 2.46155 22.0021 3.67412C23.2642 4.8867 24.2687 6.34136 24.9556 7.9511C25.6425 9.56084 25.9977 11.2926 25.9999 13.0428Z"
                    fill="url(#paint0_linear_1_76)" />
                  <defs>
                    <linearGradient id="paint0_linear_1_76" x1="13" y1="0.0442505" x2="13" y2="25.9558"
                      gradientUnits="userSpaceOnUse">
                      <stop stop-color="#DB8D76" />
                      <stop offset="1" stop-color="#0669AD" />
                    </linearGradient>
                  </defs>
                </svg>