<svg class="ssd" width="20" height="20" viewBox="0 0 27 28" fill="none"
                  xmlns="http://www.w3.org/2000/svg">
                  <path
                    d="M26.9999 10.5V11.5C26.9978 13.192 26.3836 14.8261 25.2707 16.1006C24.1577 17.375 22.6212 18.2038 20.9449 18.4338C21.6292 19.3093 22.0006 20.3888 21.9999 21.5V26.5C21.9999 26.7652 21.8946 27.0196 21.707 27.2071C21.5195 27.3947 21.2652 27.5 20.9999 27.5H12.9999C12.7347 27.5 12.4804 27.3947 12.2928 27.2071C12.1053 27.0196 11.9999 26.7652 11.9999 26.5V24.5H8.99994C7.67386 24.5 6.40209 23.9732 5.46441 23.0356C4.52672 22.0979 3.99994 20.8261 3.99994 19.5C3.99994 18.7044 3.68387 17.9413 3.12126 17.3787C2.55865 16.8161 1.79559 16.5 0.999939 16.5C0.734722 16.5 0.480369 16.3947 0.292832 16.2071C0.105296 16.0196 -6.10352e-05 15.7652 -6.10352e-05 15.5C-6.10352e-05 15.2348 0.105296 14.9804 0.292832 14.7929C0.480369 14.6054 0.734722 14.5 0.999939 14.5C1.65655 14.5 2.30673 14.6293 2.91336 14.8806C3.51998 15.1319 4.07118 15.5002 4.53547 15.9645C4.99977 16.4288 5.36806 16.98 5.61934 17.5866C5.87061 18.1932 5.99994 18.8434 5.99994 19.5C5.99994 20.2957 6.31601 21.0587 6.87862 21.6213C7.44123 22.1839 8.20429 22.5 8.99994 22.5H11.9999V21.5C11.9993 20.3888 12.3707 19.3093 13.0549 18.4338C11.3786 18.2038 9.84216 17.375 8.72922 16.1006C7.61628 14.8261 7.00204 13.192 6.99994 11.5V10.5C7.01239 9.25723 7.34335 8.03841 7.96119 6.96002C7.65553 5.97401 7.55748 4.93537 7.67323 3.90958C7.78897 2.8838 8.116 1.89312 8.63369 1.00002C8.72148 0.847964 8.84775 0.721705 8.99981 0.633935C9.15187 0.546165 9.32436 0.499977 9.49994 0.500016C10.6647 0.497578 11.8139 0.767596 12.8557 1.2885C13.8975 1.8094 14.803 2.56674 15.4999 3.50002H18.4999C19.1968 2.56674 20.1024 1.8094 21.1442 1.2885C22.186 0.767596 23.3352 0.497578 24.4999 0.500016C24.6755 0.499977 24.848 0.546165 25.0001 0.633935C25.1521 0.721705 25.2784 0.847964 25.3662 1.00002C25.884 1.8931 26.2109 2.88383 26.3265 3.90966C26.442 4.9355 26.3436 5.97414 26.0374 6.96002C26.6564 8.03799 26.9879 9.25702 26.9999 10.5Z"
                    fill="url(#paint0_linear_1_78)" />
                  <defs>
                    <linearGradient id="paint0_linear_1_78" x1="13.4999" y1="0.5" x2="13.4999" y2="27.5"
                      gradientUnits="userSpaceOnUse">
                      <stop stop-color="#DB8D76" />
                      <stop offset="1" stop-color="#0669AD" />
                    </linearGradient>
                  </defs>
                </svg>