
                <svg class="ssd" width="20" height="20" viewBox="0 0 26 26" fill="none"
                  xmlns="http://www.w3.org/2000/svg">
                  <path
                    d="M16.0725 15.1497L18.9475 16.5847C18.8112 17.2657 18.4429 17.8782 17.9054 18.318C17.3679 18.7577 16.6945 18.9973 16 18.9959C13.6139 18.9933 11.3262 18.0442 9.63896 16.357C7.95171 14.6697 7.00265 12.3821 7 9.99595C6.99981 9.30235 7.23995 8.63011 7.67958 8.09363C8.1192 7.55715 8.73114 7.18957 9.41125 7.05345L10.8462 9.92845L9.625 11.7459C9.53374 11.8828 9.47767 12.0401 9.46175 12.2039C9.44583 12.3676 9.47056 12.5328 9.53375 12.6847C10.2492 14.3852 11.602 15.738 13.3025 16.4534C13.4549 16.5194 13.6213 16.5465 13.7867 16.5321C13.9521 16.5177 14.1113 16.4623 14.25 16.3709L16.0725 15.1497ZM26 12.9959C26.0005 15.2404 25.4199 17.4467 24.3147 19.4001C23.2095 21.3536 21.6174 22.9876 19.6934 24.1432C17.7693 25.2988 15.5788 25.9366 13.3352 25.9945C11.0915 26.0523 8.87107 25.5283 6.89 24.4734L2.63375 25.8922C2.28136 26.0097 1.9032 26.0268 1.54166 25.9415C1.18012 25.8561 0.849484 25.6718 0.586814 25.4091C0.324144 25.1465 0.139818 24.8158 0.0544969 24.4543C-0.0308244 24.0928 -0.0137696 23.7146 0.10375 23.3622L1.5225 19.1059C0.595185 17.3625 0.0772463 15.4307 0.00799667 13.4572C-0.061253 11.4836 0.320007 9.52029 1.12284 7.71612C1.92567 5.91195 3.12897 4.31438 4.6414 3.04469C6.15383 1.775 7.93564 0.866546 9.85158 0.388293C11.7675 -0.0899589 13.7672 -0.125443 15.699 0.284535C17.6307 0.694513 19.4436 1.53918 21.0001 2.75441C22.5566 3.96965 23.8158 5.52352 24.6822 7.29807C25.5485 9.07262 25.9992 11.0212 26 12.9959ZM21 15.9959C21.0001 15.8102 20.9485 15.628 20.8509 15.4699C20.7533 15.3119 20.6136 15.1841 20.4475 15.1009L16.4475 13.1009C16.29 13.0225 16.1147 12.9869 15.9391 12.9979C15.7635 13.0089 15.594 13.066 15.4475 13.1634L13.6112 14.3884C12.7683 13.9251 12.0746 13.2314 11.6112 12.3884L12.8363 10.5522C12.9337 10.4057 12.9908 10.2362 13.0018 10.0606C13.0127 9.88502 12.9772 9.70965 12.8988 9.5522L10.8988 5.5522C10.8159 5.38479 10.6877 5.24394 10.5289 5.14563C10.37 5.04732 10.1868 4.99546 10 4.99595C8.67392 4.99595 7.40215 5.52273 6.46447 6.46042C5.52678 7.3981 5 8.66987 5 9.99595C5.00331 12.9123 6.1633 15.7083 8.22548 17.7705C10.2877 19.8327 13.0836 20.9926 16 20.9959C16.6566 20.9959 17.3068 20.8666 17.9134 20.6153C18.52 20.3641 19.0712 19.9958 19.5355 19.5315C19.9998 19.0672 20.3681 18.516 20.6194 17.9094C20.8707 17.3027 21 16.6526 21 15.9959Z"
                    fill="url(#paint0_linear_1_74)" />
                  <defs>
                    <linearGradient id="paint0_linear_1_74" x1="13" y1="0.00128174" x2="13" y2="25.9988"
                      gradientUnits="userSpaceOnUse">
                      <stop stop-color="#DB8D76" />
                      <stop offset="1" stop-color="#0669AD" />
                    </linearGradient>
                  </defs>
                </svg>